<svg width="128" height="48" viewBox="0 0 128 48" fill="none" xmlns="http://www.w3.org/2000/svg">
<path d="M44.4741 23.9984C44.4746 25.1549 44.3941 26.3099 44.2333 27.4546C43.4239 33.1613 40.6419 38.3781 36.3961 42.1507C32.1503 45.9233 26.7244 47.9997 21.1109 48C16.9016 48.0015 12.7701 46.8341 9.15354 44.6215C5.53696 42.4088 2.56972 39.2331 0.565677 35.4302C0.495333 35.2973 0.426708 35.1632 0.359796 35.0278C0.29544 34.9039 0.239709 34.7754 0.193027 34.6434C0.0643179 34.2627 -0.000937218 33.8624 1.01692e-05 33.4594C-5.743e-05 32.986 0.0906447 32.5172 0.266948 32.0798C0.44325 31.6424 0.701689 31.245 1.02752 30.9102C1.35334 30.5754 1.74018 30.3098 2.16592 30.1286C2.59166 29.9474 3.04797 29.8542 3.50879 29.8542C4.13422 29.854 4.74834 30.0255 5.28766 30.3509C5.82698 30.6763 6.27191 31.1437 6.57646 31.7049C6.60426 31.7578 6.63514 31.8176 6.66294 31.8752C6.66757 31.8826 6.67015 31.8895 6.67478 31.8969C8.0691 34.5866 10.1493 36.8359 12.6927 38.4041C15.2361 39.9722 18.1467 40.8001 21.1129 40.799C23.5572 40.8014 25.9708 40.2398 28.1755 39.1555C30.3801 38.0712 32.3195 36.492 33.8505 34.5345C34.022 34.3469 34.1754 34.1427 34.3086 33.9248C34.3132 33.92 34.3179 33.9153 34.3179 33.9105C35.1929 32.5023 35.2577 30.5321 33.92 28.6322C31.5606 26.7322 29.0194 27.334 27.692 28.9923C27.6524 29.0451 27.6127 29.098 27.5726 29.1509C26.5433 30.5112 25.1335 31.5153 23.5325 32.0283C21.9316 32.5414 20.2161 32.5389 18.6166 32.0212C17.4082 31.6559 16.3032 30.9969 15.3952 30.0999C14.4873 29.2029 13.8031 28.0944 13.4005 26.8681C12.9585 25.5968 12.82 24.2351 12.9968 22.8973C13.1736 21.5596 13.6604 20.2851 14.4164 19.1809C15.1724 18.0766 16.1753 17.175 17.341 16.5519C18.5067 15.9287 19.8009 15.6021 21.115 15.5997C22.3616 15.598 23.592 15.89 24.7115 16.4534C25.831 17.0169 26.8098 17.8366 27.5726 18.8496C27.6122 18.9025 27.6518 18.9554 27.692 19.0056C28.2931 19.7492 29.1213 20.262 30.0421 20.4607C30.9628 20.6595 31.9219 20.5324 32.7634 20.1002C33.5624 19.7261 34.1999 19.0635 34.5546 18.2383C34.8564 17.5815 34.993 16.8575 34.952 16.1324C34.911 15.4073 34.6937 14.7044 34.3199 14.0879C34.3199 14.0832 34.3153 14.0784 34.3107 14.0736C34.1816 13.8619 34.033 13.6634 33.867 13.4809C32.336 11.5186 30.395 9.9352 28.1877 8.84788C25.9805 7.76057 23.5634 7.19718 21.1155 7.19942C18.1493 7.19831 15.2386 8.02616 12.6953 9.59431C10.1519 11.1625 8.07168 13.4118 6.67736 16.1015C6.64699 16.1666 6.61456 16.229 6.57956 16.2935C6.24561 16.9088 5.74365 17.4102 5.13559 17.7359C4.52754 18.0616 3.83999 18.1973 3.15775 18.1262C2.35298 18.0392 1.60181 17.6706 1.03017 17.0821C0.458529 16.4937 0.101182 15.7213 0.0180269 14.8943C-0.0329612 14.3685 0.0292303 13.8375 0.200221 13.3392C0.24373 13.215 0.295327 13.094 0.354644 12.9769C0.418125 12.85 0.483149 12.7235 0.549718 12.5973C0.552643 12.5936 0.555071 12.5895 0.556928 12.5851C2.55975 8.77796 5.5276 5.59822 9.14609 3.38268C12.7646 1.16715 16.899 -0.00168166 21.1114 1.81598e-06C26.7249 0.000332582 32.1508 2.07668 36.3966 5.8493C40.6424 9.62191 43.4244 14.8387 44.2338 20.5454C44.3943 21.689 44.4746 22.843 44.4741 23.9984Z" fill="#445EE9"/>
<path d="M50.5986 23.6679C50.5986 16.3781 54.4456 12.162 60.1918 12.162C64.7187 12.162 67.4657 14.6579 67.4657 17.4943C67.4295 18.0871 67.2566 18.6626 66.9612 19.1732C66.6659 19.6839 66.2566 20.115 65.7672 20.4312C65.383 20.6708 64.9427 20.7987 64.4933 20.8014C63.5544 20.8014 62.7371 20.1531 63.2317 19.7216C65.5777 17.6783 63.1288 16.2818 61.2115 16.5563C58.6847 16.9185 55.965 19.2166 55.965 23.6705C55.965 27.8866 57.7099 30.3491 61.0035 30.3491C63.9116 30.3491 65.1382 27.9167 66.3642 27.9167C66.9109 27.9167 67.4642 28.3889 67.4642 29.3698C67.4642 32.0666 65.0044 35.17 60.1903 35.17C54.4456 35.17 50.5986 30.954 50.5986 23.6679Z" fill="#445EE9"/>
<path d="M70.2246 32.8878V19.0183C70.2246 17.6217 71.0023 17.0618 72.5233 17.0618C74.0443 17.0618 74.8148 17.6233 74.8148 19.0183V21.1419C75.5869 18.4207 77.3307 16.8587 79.4956 16.8587C80.4344 16.8587 81.2055 17.5895 81.2055 19.9114C81.2055 22.2333 80.4334 22.9672 79.4956 22.9672C78.8857 22.9672 78.1712 22.6325 77.5912 22.6325C76.0779 22.6325 75.3347 24.3928 75.3347 26.4514V32.8878C75.3347 34.2811 74.2975 34.8443 72.7771 34.8443C71.2566 34.8443 70.2246 34.2806 70.2246 32.8878Z" fill="#445EE9"/>
<path d="M82.0898 26.0771C82.0898 20.4688 85.2574 16.982 90.3252 16.982C94.0461 16.982 96.2398 18.8756 96.2398 21.2652C96.2398 25.4769 93.0089 27.37 87.1927 27.37C87.7115 29.3604 89.1337 30.6887 91.1663 30.6887C93.3945 30.6887 94.2077 29.0293 95.3704 29.0293C95.7822 29.0293 96.2398 29.3931 96.2398 30.1562C96.2398 32.4453 93.975 35.1664 90.3252 35.1664C85.2574 35.1696 82.0898 31.6854 82.0898 26.0771ZM87.1912 24.7488C90.3587 24.7488 91.683 23.3919 91.683 22.1287C91.683 21.4338 91.1992 20.9336 90.2326 20.9336C88.4249 20.9331 87.2612 22.4597 87.1912 24.7488Z" fill="#445EE9"/>
<path d="M100.062 28.3821V21.2964H99.3819C98.282 21.2964 97.7349 20.6227 97.7349 19.3399C97.7349 18.0258 98.2815 17.3485 99.3819 17.3485H100.062V14.6839C100.062 13.2673 101.127 12.6925 102.612 12.6925C104.126 12.6925 105.198 13.2673 105.198 14.6839V17.3485H108.071C109.137 17.3485 109.718 18.0258 109.718 19.3399C109.718 20.6243 109.137 21.2964 108.071 21.2964H105.198V28.3821C105.198 30.3037 105.71 30.9478 106.845 30.9478C107.812 30.9478 108.235 30.4063 108.815 30.4063C109.263 30.4063 109.718 30.7796 109.718 31.5887C109.718 33.5103 107.974 35.5017 105.163 35.5017C101.547 35.5012 100.062 33.4114 100.062 28.3821Z" fill="#445EE9"/>
<path d="M111.525 26.4082C111.525 20.3356 114.174 17.313 117.951 17.313C120.216 17.313 122.247 18.8751 123.41 21.0637V19.4726C123.41 18.0761 124.188 17.5161 125.709 17.5161C127.229 17.5161 128 18.0777 128 19.4726V33.3416C128 34.735 127.222 35.2981 125.709 35.2981C124.195 35.2981 123.41 34.7334 123.41 33.3416V30.786C122.317 33.5722 120.734 35.498 117.951 35.498C114.174 35.5012 111.525 32.4807 111.525 26.4082ZM122.9 25.4796C122.249 23.2228 120.672 21.7972 119.214 21.7972C117.666 21.7972 116.628 23.1577 116.628 26.4082C116.628 29.8278 117.666 31.0229 118.927 31.0229C120.25 31.0229 122.06 29.0648 122.899 25.4796H122.9Z" fill="#445EE9"/>
</svg>
